<svg width="32" height="32" viewBox="0 0 32 32" fill="none" xmlns="http://www.w3.org/2000/svg">
<g clip-path="url(#clip0_140_566)">
<rect width="32" height="32" rx="5" fill="black"/>
<path d="M17.912 25.264C17.208 25.7547 16.3547 26 15.352 26H14.68C12.8027 26 11.4267 25.6053 10.552 24.816C9.67733 24.0053 9.24 22.6933 9.24 20.88V15.12C9.24 13.328 9.67733 12.0267 10.552 11.216C11.448 10.4053 12.824 10 14.68 10H17.752V3.6H20.472V26H17.912V25.264ZM15.672 23.6C16.376 23.6 16.8987 23.4187 17.24 23.056C17.5813 22.672 17.752 22.2667 17.752 21.84V12.4H14.36C13.5707 12.4 12.9733 12.5813 12.568 12.944C12.1627 13.3067 11.96 13.8187 11.96 14.48V21.52C11.96 22.1813 12.1627 22.6933 12.568 23.056C12.9733 23.4187 13.5707 23.6 14.36 23.6H15.672Z" fill="#9E3BFC"/>
</g>
<defs>
<clipPath id="clip0_140_566">
<rect width="32" height="32" fill="white"/>
</clipPath>
</defs>
</svg>
