<svg width="20" height="20" viewBox="0 0 20 20" fill="none" xmlns="http://www.w3.org/2000/svg">
<path d="M17.7778 14.4444V15.5556C17.7778 16.9201 16.9201 17.7778 15.5556 17.7778H4.44444C3.07992 17.7778 2.22222 16.9201 2.22222 15.5556V14.4444C2.22222 13.8402 1.7154 13.3333 1.11111 13.3333C0.506823 13.3333 0 13.8402 0 14.4444V15.5556C0 18.0117 1.9883 20 4.44444 20H15.5556C18.0117 20 20 18.0117 20 15.5556V14.4444C20 13.8402 19.4932 13.3333 18.8889 13.3333C18.2846 13.3333 17.7778 13.8402 17.7778 14.4444ZM4.77583 10.7797L9.10331 15.1072C9.59064 15.614 10.4094 15.614 10.8967 15.1072L15.2242 10.7797C15.4386 10.5848 15.5556 10.3119 15.5556 10C15.5556 9.39571 15.0487 8.88889 14.4444 8.88889C14.1326 8.88889 13.8596 9.00585 13.6647 9.22027L9.33723 13.5478C9.08382 13.8012 10.9162 13.8012 10.6628 13.5478L6.33528 9.22027C6.14035 9.00585 5.86745 8.88889 5.55556 8.88889C4.95127 8.88889 4.44444 9.39571 4.44444 10C4.44444 10.3119 4.5614 10.5848 4.77583 10.7797ZM11.1111 14.4444V1.11111C11.1111 0.506822 10.6043 0 10 0C9.39571 0 8.88889 0.506822 8.88889 1.11111V14.4444C8.88889 15.0487 9.39571 15.5556 10 15.5556C10.6043 15.5556 11.1111 15.0487 11.1111 14.4444Z" fill="white"/>
</svg>
