<svg width="40" height="40" viewBox="0 0 40 40" fill="none" xmlns="http://www.w3.org/2000/svg">
<path fill-rule="evenodd" clip-rule="evenodd" d="M20 3.74449C10.7917 3.74449 3.33334 11.2028 3.33334 20.4112C3.33334 27.7862 8.10418 34.0153 14.7292 36.2237C15.5625 36.3695 15.875 35.8695 15.875 35.432C15.875 35.0362 15.8542 33.7237 15.8542 32.3278C11.6667 33.0987 10.5833 31.307 10.25 30.3695C10.0625 29.8903 9.25001 28.4112 8.54168 28.0153C7.95834 27.7028 7.12501 26.932 8.52084 26.9112C9.83334 26.8903 10.7708 28.1195 11.0833 28.6195C12.5833 31.1403 14.9792 30.432 15.9375 29.9945C16.0833 28.9112 16.5208 28.182 17 27.7653C13.2917 27.3487 9.41668 25.9112 9.41668 19.5362C9.41668 17.7237 10.0625 16.2237 11.125 15.057C10.9583 14.6403 10.375 12.932 11.2917 10.6403C11.2917 10.6403 12.6875 10.2028 15.875 12.3487C17.2083 11.9737 18.625 11.7862 20.0417 11.7862C21.4583 11.7862 22.875 11.9737 24.2083 12.3487C27.3958 10.182 28.7917 10.6403 28.7917 10.6403C29.7083 12.932 29.125 14.6403 28.9583 15.057C30.0208 16.2237 30.6667 17.7028 30.6667 19.5362C30.6667 25.932 26.7708 27.3487 23.0625 27.7653C23.6667 28.2862 24.1875 29.2862 24.1875 30.8487C24.1875 33.0778 24.1667 34.8695 24.1667 35.432C24.1667 35.8695 24.4792 36.3903 25.3125 36.2237C28.6211 35.1067 31.4962 32.9803 33.533 30.1437C35.5698 27.3071 36.6658 23.9032 36.6667 20.4112C36.6667 11.2028 29.2083 3.74449 20 3.74449Z" fill="white"/>
</svg>
