<svg width="40" height="40" viewBox="0 0 40 40" fill="none" xmlns="http://www.w3.org/2000/svg">
<path fill-rule="evenodd" clip-rule="evenodd" d="M20 5C15.926 5 15.416 5.017 13.816 5.09C12.219 5.163 11.128 5.417 10.174 5.788C9.174 6.164 8.267 6.754 7.517 7.518C6.75422 8.26713 6.16386 9.17349 5.787 10.174C5.418 11.128 5.163 12.22 5.09 13.817C5.018 15.416 5 15.925 5 20C5 24.075 5.017 24.584 5.09 26.184C5.163 27.781 5.417 28.872 5.788 29.826C6.164 30.826 6.754 31.733 7.518 32.483C8.26715 33.2458 9.17351 33.8361 10.174 34.213C11.128 34.583 12.219 34.837 13.816 34.91C15.416 34.983 15.926 35 20 35C24.074 35 24.584 34.983 26.184 34.91C27.781 34.837 28.872 34.583 29.826 34.212C30.826 33.836 31.733 33.246 32.483 32.482C33.2458 31.7329 33.8361 30.8265 34.213 29.826C34.583 28.872 34.837 27.781 34.91 26.184C34.983 24.584 35 24.074 35 20C35 15.926 34.983 15.416 34.91 13.816C34.837 12.219 34.583 11.128 34.212 10.174C33.8354 9.17306 33.245 8.26632 32.482 7.517C31.7329 6.75422 30.8265 6.16386 29.826 5.787C28.872 5.418 27.78 5.163 26.183 5.09C24.584 5.018 24.075 5 20 5ZM20 7.703C24.005 7.703 24.48 7.718 26.062 7.79C27.524 7.857 28.318 8.1 28.847 8.307C29.547 8.578 30.047 8.904 30.572 9.428C31.097 9.953 31.422 10.453 31.693 11.153C31.899 11.682 32.143 12.476 32.21 13.938C32.282 15.52 32.297 15.995 32.297 20C32.297 24.005 32.282 24.48 32.21 26.062C32.143 27.524 31.9 28.318 31.693 28.847C31.4529 29.4985 31.0699 30.088 30.572 30.572C30.0881 31.07 29.4986 31.4531 28.847 31.693C28.318 31.899 27.524 32.143 26.062 32.21C24.48 32.282 24.006 32.297 20 32.297C15.994 32.297 15.52 32.282 13.938 32.21C12.476 32.143 11.682 31.9 11.153 31.693C10.5015 31.4529 9.91201 31.0699 9.428 30.572C8.93018 30.088 8.54713 29.4985 8.307 28.847C8.101 28.318 7.857 27.524 7.79 26.062C7.718 24.48 7.703 24.005 7.703 20C7.703 15.995 7.718 15.52 7.79 13.938C7.857 12.476 8.1 11.682 8.307 11.153C8.578 10.453 8.904 9.953 9.428 9.428C9.91194 8.93004 10.5014 8.54698 11.153 8.307C11.682 8.101 12.476 7.857 13.938 7.79C15.52 7.718 15.995 7.703 20 7.703Z" fill="white"/>
<path fill-rule="evenodd" clip-rule="evenodd" d="M20 25.005C19.3427 25.005 18.6919 24.8755 18.0847 24.624C17.4774 24.3725 16.9257 24.0038 16.4609 23.5391C15.9962 23.0743 15.6275 22.5226 15.376 21.9153C15.1245 21.3081 14.995 20.6573 14.995 20C14.995 19.3427 15.1245 18.6919 15.376 18.0847C15.6275 17.4774 15.9962 16.9257 16.4609 16.4609C16.9257 15.9962 17.4774 15.6275 18.0847 15.376C18.6919 15.1245 19.3427 14.995 20 14.995C21.3274 14.995 22.6004 15.5223 23.5391 16.4609C24.4777 17.3995 25.005 18.6726 25.005 20C25.005 21.3274 24.4777 22.6005 23.5391 23.5391C22.6004 24.4777 21.3274 25.005 20 25.005ZM20 12.29C17.9552 12.29 15.9941 13.1023 14.5482 14.5482C13.1023 15.9941 12.29 17.9552 12.29 20C12.29 22.0448 13.1023 24.0059 14.5482 25.4518C15.9941 26.8977 17.9552 27.71 20 27.71C22.0448 27.71 24.0059 26.8977 25.4518 25.4518C26.8977 24.0059 27.71 22.0448 27.71 20C27.71 17.9552 26.8977 15.9941 25.4518 14.5482C24.0059 13.1023 22.0448 12.29 20 12.29ZM29.953 12.15C29.953 12.6334 29.761 13.0969 29.4192 13.4387C29.0774 13.7805 28.6138 13.9725 28.1305 13.9725C27.6471 13.9725 27.1836 13.7805 26.8418 13.4387C26.5 13.0969 26.308 12.6334 26.308 12.15C26.308 11.6666 26.5 11.2031 26.8418 10.8613C27.1836 10.5195 27.6471 10.3275 28.1305 10.3275C28.6138 10.3275 29.0774 10.5195 29.4192 10.8613C29.761 11.2031 29.953 11.6666 29.953 12.15Z" fill="white"/>
</svg>
