<svg width="40" height="40" viewBox="0 0 40 40" fill="none" xmlns="http://www.w3.org/2000/svg">
<path d="M35 7.20588V32.7941C35 33.3792 34.7676 33.9402 34.3539 34.3539C33.9402 34.7676 33.3792 35 32.7941 35H7.20588C6.62085 35 6.05977 34.7676 5.64609 34.3539C5.2324 33.9402 5 33.3792 5 32.7941V7.20588C5 6.62085 5.2324 6.05977 5.64609 5.64609C6.05977 5.2324 6.62085 5 7.20588 5H32.7941C33.3792 5 33.9402 5.2324 34.3539 5.64609C34.7676 6.05977 35 6.62085 35 7.20588V7.20588ZM13.8235 16.4706H9.41176V30.5882H13.8235V16.4706ZM14.2206 11.6176C14.2229 11.2839 14.1595 10.953 14.0339 10.6438C13.9084 10.3346 13.7231 10.0532 13.4888 9.81558C13.2545 9.57797 12.9756 9.38884 12.6682 9.259C12.3608 9.12915 12.0308 9.06113 11.6971 9.05882H11.6176C10.939 9.05882 10.2882 9.32841 9.80829 9.80829C9.32841 10.2882 9.05882 10.939 9.05882 11.6176C9.05882 12.2963 9.32841 12.9471 9.80829 13.427C10.2882 13.9069 10.939 14.1765 11.6176 14.1765V14.1765C11.9514 14.1847 12.2835 14.1271 12.5949 14.0069C12.9064 13.8867 13.1911 13.7063 13.4328 13.4761C13.6746 13.2458 13.8685 12.9702 14.0037 12.6649C14.1389 12.3597 14.2126 12.0308 14.2206 11.6971V11.6176ZM30.5882 22.0118C30.5882 17.7676 27.8882 16.1176 25.2059 16.1176C24.3276 16.0737 23.4532 16.2607 22.6698 16.6602C21.8864 17.0596 21.2214 17.6575 20.7412 18.3941H20.6176V16.4706H16.4706V30.5882H20.8824V23.0794C20.8186 22.3104 21.0608 21.5472 21.5565 20.9558C22.0521 20.3643 22.7611 19.9923 23.5294 19.9206H23.6971C25.1 19.9206 26.1412 20.8029 26.1412 23.0265V30.5882H30.5529L30.5882 22.0118Z" fill="white"/>
</svg>
