<svg width="80" height="80" viewBox="0 0 80 80" fill="none" xmlns="http://www.w3.org/2000/svg">
<path d="M10.56 57C10.208 57 9.92 56.888 9.696 56.664C9.472 56.44 9.36 56.152 9.36 55.8V24.6C9.36 24.248 9.472 23.96 9.696 23.736C9.92 23.512 10.208 23.4 10.56 23.4H23.04C26.176 23.4 28.848 23.912 31.056 24.936C33.264 25.928 34.96 27.4 36.144 29.352C37.328 31.272 37.968 33.656 38.064 36.504C38.096 37.912 38.112 39.144 38.112 40.2C38.112 41.256 38.096 42.472 38.064 43.848C37.936 46.824 37.296 49.288 36.144 51.24C35.024 53.192 33.376 54.648 31.2 55.608C29.056 56.536 26.416 57 23.28 57H10.56ZM17.952 50.088H23.04C24.416 50.088 25.552 49.88 26.448 49.464C27.376 49.016 28.064 48.328 28.512 47.4C28.992 46.472 29.248 45.256 29.28 43.752C29.344 42.824 29.376 41.992 29.376 41.256C29.408 40.52 29.408 39.784 29.376 39.048C29.376 38.312 29.344 37.496 29.28 36.6C29.216 34.424 28.64 32.84 27.552 31.848C26.496 30.824 24.912 30.312 22.8 30.312H17.952V50.088Z" fill="#D3D3D3"/>
<path d="M57.5914 57.48C54.5514 57.48 51.9274 56.984 49.7194 55.992C47.5434 54.968 45.8474 53.496 44.6314 51.576C43.4474 49.624 42.7914 47.256 42.6634 44.472C42.6314 43.096 42.6154 41.64 42.6154 40.104C42.6154 38.536 42.6314 37.048 42.6634 35.64C42.7914 32.92 43.4634 30.616 44.6794 28.728C45.8954 26.84 47.6074 25.4 49.8154 24.408C52.0234 23.416 54.6154 22.92 57.5914 22.92C59.9914 22.92 62.1194 23.224 63.9754 23.832C65.8314 24.408 67.3834 25.192 68.6314 26.184C69.9114 27.176 70.8714 28.264 71.5114 29.448C72.1834 30.632 72.5354 31.8 72.5674 32.952C72.5994 33.24 72.5034 33.48 72.2794 33.672C72.0874 33.864 71.8474 33.96 71.5594 33.96H64.5514C64.1994 33.96 63.9274 33.912 63.7354 33.816C63.5754 33.688 63.4314 33.512 63.3034 33.288C63.0794 32.808 62.7434 32.312 62.2954 31.8C61.8794 31.256 61.2874 30.792 60.5194 30.408C59.7834 30.024 58.8074 29.832 57.5914 29.832C55.7674 29.832 54.3274 30.312 53.2714 31.272C52.2474 32.232 51.6874 33.768 51.5914 35.88C51.4954 38.632 51.4954 41.416 51.5914 44.232C51.6874 46.472 52.2794 48.088 53.3674 49.08C54.4554 50.072 55.8954 50.568 57.6874 50.568C58.9034 50.568 59.9754 50.36 60.9034 49.944C61.8634 49.528 62.6154 48.888 63.1594 48.024C63.7034 47.128 63.9754 45.992 63.9754 44.616V43.704H59.4634C59.1114 43.704 58.8074 43.592 58.5514 43.368C58.3274 43.112 58.2154 42.808 58.2154 42.456V38.904C58.2154 38.552 58.3274 38.264 58.5514 38.04C58.8074 37.784 59.1114 37.656 59.4634 37.656H71.5594C71.9114 37.656 72.1994 37.784 72.4234 38.04C72.6474 38.264 72.7594 38.552 72.7594 38.904V44.376C72.7594 47.128 72.1354 49.48 70.8874 51.432C69.6394 53.384 67.8634 54.888 65.5594 55.944C63.2874 56.968 60.6314 57.48 57.5914 57.48Z" fill="#D3D3D3"/>
<path d="M6 59H75V62H6V59Z" fill="#55C1FF"/>
</svg>
