<svg width="140" height="60" viewBox="0 0 140 60" fill="none" xmlns="http://www.w3.org/2000/svg">
<path d="M26.92 41.88H29.72V42.68H29.64V43.08H27.48V43.88H29.32V44.08H27.8C27.7467 44.3733 27.6267 44.5733 27.44 44.68C27.28 44.76 27.12 44.8 26.96 44.8C26.9333 44.8 26.88 44.7867 26.8 44.76C26.72 44.76 26.6267 44.7333 26.52 44.68L25.64 44.08H27.16L26.84 43.88H25L23.84 43.08H26L25.4 42.68H25.48L24.28 41.88H21.48L20.32 41.08H21.08L20.8 40.88H21.88L21 40.28H20.32L19.4 39.68H19.32L18.72 39.28H18.56L17.68 38.68H17.52L17.2 38.48H16.72L16.44 38.28H16.68L16.36 38.08H16.44L15.52 37.48L14.64 36.88H15.64L15.36 36.68H13.28L12.68 36.28H13.92L13.64 36.08H13.88L13.32 35.68H13.4L12.8 35.28H13.12L12.52 34.88H12.28L11.4 34.28H11.32L10.72 33.88C10.6133 33.8267 10.5067 33.76 10.4 33.68C10.32 33.6 10.24 33.5333 10.16 33.48H10.12C9.93333 33.32 9.77333 33.12 9.64 32.88H9.2C9.14667 32.72 9.12 32.5867 9.12 32.48H8V32.28H8.88V32.08H10.28V31.68H9.32V30.88H9.56V30.48H10.04C10.04 30.4 10.04 30.3333 10.04 30.28C10.0667 30.2 10.08 30.1333 10.08 30.08H9.28C9.30667 29.8667 9.41333 29.6667 9.6 29.48H9.24C9.29333 29.4 9.36 29.3333 9.44 29.28C9.52 29.2 9.6 29.1333 9.68 29.08H11.72L12.08 28.84L12.88 28.28H10.64L11.24 27.88H13.96L14.56 27.48H13.84L15 26.68H14.08L14.36 26.48H14.2L14.52 26.28L15.12 25.88H15.2L15.76 25.48H15.8L16.12 25.28H16.04L16.32 25.08H16.2L16.48 24.88H16.68L16.96 24.68H16.72L17 24.48H16.96L17.28 24.28H17.16L17.76 23.88H18L18.32 23.68H18.36L18.68 23.48H18.76L19.92 22.68H20L20.32 22.48H20.48L21.36 21.88H21L21.92 21.28H22.24L22.56 21.08H22.16L23.04 20.48H23.28L24.2 19.88H23.92L24.52 19.48H24.92L25.24 19.28H24.88L25.48 18.88H24.84L26.04 18.08H25.72L25.8 18.04C25.9067 17.9867 26 17.96 26.08 17.96C26.16 17.9333 26.2133 17.92 26.24 17.92C26.4533 17.92 26.6267 17.9733 26.76 18.08H27.04C27.28 18.2667 27.4 18.4933 27.4 18.76V18.88H28V19.28H28.36V19.48H27.92V19.88H28.2V20.48H27.96V21.08H28.32V21.28H28V21.88H28.32V22.48H28.16V22.68H28.08V23.48H28V23.68H27.92V23.88H27.68V24.28H27.8V24.48H27.84V24.68H28.08V24.88H27.92V25.08H28.04V25.28H28.12C28.12 25.3067 28.1067 25.3333 28.08 25.36C28.08 25.3867 28.08 25.4267 28.08 25.48L27.96 25.88H27.88C27.8533 26.0133 27.7733 26.1467 27.64 26.28C27.6133 26.3067 27.5867 26.3333 27.56 26.36C27.5333 26.3867 27.5067 26.4267 27.48 26.48H27.64L27.4 26.68H28.32C28.2133 26.7333 28.12 26.7867 28.04 26.84C27.96 26.8933 27.88 26.9467 27.8 27L27.04 27.48H27.76L27.12 27.88H24.4L23.76 28.28H26L24.72 29.08H22.68L22.04 29.48H22.4L21.44 30.08H22.28L21.64 30.48H21.12L20.48 30.88H20.24L19.48 31.36L19.96 31.68H20.96L21.6 32.08H20.16L20.48 32.28H19.64L19.92 32.48H21.04L21.64 32.88H22.12L23.04 33.48H23.08L24.36 34.28H24.44L25.4 34.88H25.64L26.28 35.28H25.96L26.6 35.68H26.52L26.64 35.76C26.72 35.7867 26.8 35.84 26.88 35.92C26.96 35.9733 27.0533 36.0267 27.16 36.08H26.88C26.96 36.1067 27.0533 36.1733 27.16 36.28H25.88C25.9333 36.3333 25.9867 36.4 26.04 36.48C26.12 36.5333 26.1733 36.6 26.2 36.68H28.28C28.3333 36.7867 28.36 36.8533 28.36 36.88H27.36C27.44 37.04 27.48 37.24 27.48 37.48V38.08H27.44V38.28H27.2V38.48H27.68V38.68H27.84V39.28H28V39.68H28.08V40.28H28.8V40.88H27.72V41.08H26.92V41.88Z" fill="#55C1FF"/>
<path d="M62.8034 22.68C62.8568 22.7867 62.9101 22.8933 62.9634 23C63.0168 23.08 63.0568 23.1733 63.0834 23.28H61.6034C61.6568 23.3867 61.7101 23.52 61.7634 23.68C61.8168 23.8133 61.8701 23.9467 61.9234 24.08H55.6434L55.8834 24.88H59.1234L59.2434 25.48H58.8034C58.8301 25.5333 58.8434 25.6 58.8434 25.68C58.8434 25.76 58.8568 25.8267 58.8834 25.88H57.8034L57.8434 26.28H58.6834C58.6834 26.3867 58.6834 26.4933 58.6834 26.6C58.7101 26.68 58.7234 26.7733 58.7234 26.88H60.2034C60.2301 26.9867 60.2434 27.08 60.2434 27.16C60.2434 27.24 60.2434 27.3333 60.2434 27.44V27.48H56.4834C56.4834 27.6133 56.4834 27.7467 56.4834 27.88C56.5101 28.0133 56.5234 28.1467 56.5234 28.28H57.3634C57.3634 28.4133 57.3634 28.5467 57.3634 28.68C57.3901 28.8133 57.4034 28.9467 57.4034 29.08H58.8434V29.28H58.2834V30.08H58.4434V30.68H60.8034V31.48H58.5634V31.88H58.3234C58.3234 31.9333 58.3234 32 58.3234 32.08C58.3234 32.16 58.3101 32.2267 58.2834 32.28H57.5634V33.08H57.6434C57.6168 33.16 57.6034 33.2667 57.6034 33.4V33.48H59.0834C59.0834 33.5867 59.0701 33.6933 59.0434 33.8C59.0434 33.88 59.0434 33.9733 59.0434 34.08H59.6434C59.6434 34.2133 59.6301 34.3467 59.6034 34.48C59.6034 34.6133 59.5901 34.7467 59.5634 34.88H58.6834C58.6568 34.9333 58.6434 35 58.6434 35.08C58.6434 35.16 58.6301 35.2267 58.6034 35.28H53.8034C53.8034 35.3867 53.7768 35.52 53.7234 35.68H57.9234C57.8701 35.84 57.8434 35.9733 57.8434 36.08H58.4434C58.4168 36.1867 58.3901 36.2933 58.3634 36.4C58.3634 36.48 58.3368 36.5733 58.2834 36.68L58.1634 37.08H57.0034L56.9234 37.28H58.8034C58.7501 37.3867 58.7234 37.4533 58.7234 37.48H57.5234L57.4434 37.68H57.4034C57.3501 37.8133 57.2968 37.9467 57.2434 38.08C57.1901 38.2133 57.1234 38.3467 57.0434 38.48H56.4434L56.0034 39.28H56.6834L56.4434 39.68H56.4834C56.4301 39.7333 56.3768 39.8 56.3234 39.88C56.2701 39.96 56.2168 40.0267 56.1634 40.08H55.8834C55.8034 40.16 55.7501 40.2267 55.7234 40.28C55.6434 40.3867 55.5634 40.4933 55.4834 40.6C55.4034 40.68 55.3101 40.7733 55.2034 40.88H55.0834C54.9501 41.0133 54.8034 41.1467 54.6434 41.28C54.5101 41.4133 54.3634 41.5467 54.2034 41.68H54.5634L53.7234 42.28H53.7634C53.5501 42.4133 53.3234 42.5467 53.0834 42.68C52.8434 42.8133 52.5901 42.9467 52.3234 43.08H52.2834C52.0168 43.2133 51.6834 43.3467 51.2834 43.48H51.3234C50.7901 43.6667 50.2301 43.8267 49.6434 43.96C49.0568 44.0933 48.4568 44.2 47.8434 44.28H48.6834C48.2568 44.3333 47.8168 44.3733 47.3634 44.4C46.9101 44.4267 46.4434 44.44 45.9634 44.44H34.2434C34.0034 44.44 33.8168 44.3867 33.6834 44.28H32.8434C32.5768 44.12 32.4168 43.8533 32.3634 43.48H32.3234V43.08H32.4034V42.28H32.3234V41.68H32.0034V40.88H32.1234V40.28H32.0834V40.08H32.4034V39.68H32.3634V39.28H31.6434V38.48H32.2834V37.68H32.3234V37.48H33.5234V37.28H31.6834V37.08H32.8434V36.08H32.2834V35.68H32.2434V35.28H33.2834V34.88H28.6834V34.08H28.5234V33.48H29.0434V33.08H30.6834V32.28H31.7234V31.88H32.3234V31.48H32.9634V30.68H33.8834V30.08H34.7634V29.28H32.0834V29.08H31.2034V28.28H29.4434V27.48H34.0034V26.88H30.4834V26.28H32.4034V25.88H32.3234V25.48H32.0034V24.88H30.2834V24.08H36.5234V23.28H38.0034V22.68H30.8034V21.88H35.5234V21.68H31.8034V21.48H39.3634V20.68H38.4034V20.48H28.8834V19.68H30.0434V19.08H32.5234V18.88H33.8434V18.48H33.1234V18.28H32.2834V17.88H32.3634V17.52C32.3634 17.4667 32.3634 17.4267 32.3634 17.4C32.3901 17.3467 32.4034 17.3067 32.4034 17.28H32.5634C32.6968 16.72 33.0568 16.44 33.6434 16.44H45.1634C47.2168 16.44 49.0834 16.72 50.7634 17.28H50.6034C51.0834 17.44 51.5768 17.64 52.0834 17.88H52.0034C52.1368 17.9333 52.2701 18 52.4034 18.08C52.5634 18.1333 52.6968 18.2 52.8034 18.28H53.6434L54.0034 18.48H54.6834C54.8168 18.5333 54.9234 18.6 55.0034 18.68C55.1101 18.76 55.2168 18.8267 55.3234 18.88H54.0034C54.0568 18.9067 54.1101 18.9333 54.1634 18.96C54.2168 18.9867 54.2568 19.0267 54.2834 19.08H51.8034L52.5634 19.68H51.3634C51.6568 19.92 51.9234 20.1867 52.1634 20.48H61.6834C61.7101 20.5067 61.7368 20.5333 61.7634 20.56C61.7901 20.5867 61.8168 20.6267 61.8434 20.68H62.8434C62.9501 20.7867 63.0568 20.92 63.1634 21.08C63.2701 21.2133 63.3634 21.3467 63.4434 21.48H55.8834C55.9101 21.5067 55.9368 21.5333 55.9634 21.56C55.9901 21.5867 56.0168 21.6267 56.0434 21.68H59.7634L59.8834 21.88H55.1634C55.3501 22.1467 55.4968 22.4133 55.6034 22.68H62.8034ZM48.6834 25.48C48.5234 25.24 48.3234 25.04 48.0834 24.88H44.8434C44.2568 24.4533 43.5368 24.24 42.6834 24.24H40.2834V24.88H42.0034V25.48H42.3234V25.88H42.4034V26.28H40.4834V26.88H44.0034V27.48H39.4434V28.28H41.2034V29.08H42.0834V29.28H44.7634V30.08H43.8834V30.68H42.9634V31.48H42.3234V31.88H41.7234V32.28H40.6834V33.08H39.0434V33.48H38.5234V34.08H38.6834V34.88H43.2834V35.28H42.2434V35.68H42.2834V36.08H42.8434V36.64H45.4434C46.2168 36.64 46.8701 36.4533 47.4034 36.08H46.7634C46.8434 36.0267 46.9234 35.9733 47.0034 35.92C47.0834 35.84 47.1501 35.76 47.2034 35.68H43.0434C43.0968 35.6267 43.1501 35.5733 43.2034 35.52C43.2568 35.44 43.2968 35.36 43.3234 35.28H48.1234C48.1768 35.2267 48.2168 35.1733 48.2434 35.12C48.2701 35.04 48.2968 34.96 48.3234 34.88H49.2434C49.2968 34.7467 49.3368 34.6133 49.3634 34.48C49.3901 34.3467 49.4168 34.2133 49.4434 34.08H48.8434C48.8701 33.9733 48.8834 33.88 48.8834 33.8C48.8834 33.6933 48.8968 33.5867 48.9234 33.48H47.4434V33.4C47.4434 33.3467 47.4434 33.2933 47.4434 33.24C47.4701 33.1867 47.4834 33.1333 47.4834 33.08H47.4034C47.4034 32.9467 47.4034 32.8133 47.4034 32.68C47.4034 32.52 47.4168 32.3867 47.4434 32.28H48.1634V31.88H48.4034L48.4434 31.48H50.6834V30.68H48.3234V30.08H48.1634V29.28H48.7234V29.08H47.2434V28.28H46.3634C46.3634 28.1467 46.3634 28.0133 46.3634 27.88C46.3634 27.7467 46.3501 27.6133 46.3234 27.48H50.0834V27.44C50.0834 27.3333 50.0701 27.24 50.0434 27.16C50.0434 27.0533 50.0434 26.96 50.0434 26.88H48.5634C48.5368 26.7733 48.5101 26.68 48.4834 26.6C48.4568 26.4933 48.4301 26.3867 48.4034 26.28H47.5634C47.5368 26.2 47.5101 26.1333 47.4834 26.08C47.4568 26 47.4301 25.9333 47.4034 25.88H48.4834C48.4568 25.8 48.4168 25.7333 48.3634 25.68C48.3368 25.6 48.2968 25.5333 48.2434 25.48H48.6834Z" fill="#55C1FF"/>
<path d="M87.4528 31.68H92.6928V32.48H91.1328V33.28H88.8928V33.84C88.8928 33.9467 88.8795 34.0533 88.8528 34.16C88.8528 34.2667 88.8528 34.3733 88.8528 34.48H88.9728C88.9728 34.5867 88.9595 34.6933 88.9328 34.8C88.9328 34.88 88.9328 34.9733 88.9328 35.08H88.5728C88.5728 35.1333 88.5728 35.2 88.5728 35.28C88.5728 35.36 88.5595 35.4267 88.5328 35.48H84.8528C84.8261 35.5333 84.8128 35.6 84.8128 35.68C84.8128 35.76 84.7995 35.8267 84.7728 35.88H84.8128L84.6928 36.48H87.5728C87.5461 36.5867 87.5195 36.6933 87.4928 36.8C87.4661 36.88 87.4395 36.9733 87.4128 37.08H87.8528C87.8261 37.2133 87.7861 37.3467 87.7328 37.48C87.6795 37.6133 87.6261 37.7467 87.5728 37.88H88.0928L87.9328 38.28H87.3328C87.2795 38.4133 87.2128 38.5467 87.1328 38.68C87.0795 38.8133 87.0128 38.9467 86.9328 39.08H88.5328L88.2928 39.48H88.6128C88.5595 39.5333 88.5061 39.6 88.4528 39.68C88.4261 39.76 88.3861 39.8267 88.3328 39.88H86.0528C86.0262 39.9067 85.9995 39.9333 85.9728 39.96C85.9462 39.9867 85.9195 40.0267 85.8928 40.08H88.4928C88.3861 40.24 88.2795 40.3733 88.1728 40.48H87.5328C87.4528 40.5867 87.3595 40.6933 87.2528 40.8C87.1728 40.88 87.0795 40.9733 86.9728 41.08H88.3728L87.7328 41.68H87.2928L87.0528 41.88H85.8528C85.6128 42.0667 85.3328 42.2667 85.0128 42.48H84.7728C84.6128 42.5867 84.4395 42.6933 84.2528 42.8C84.0928 42.88 83.9195 42.9733 83.7328 43.08H82.9728L82.5328 43.28H81.4928C80.9861 43.52 80.4928 43.72 80.0128 43.88H79.0128C78.2928 44.12 77.5328 44.32 76.7328 44.48H75.9728C75.7595 44.5067 75.5328 44.5333 75.2928 44.56C75.0795 44.6133 74.8661 44.6533 74.6528 44.68H75.7328C75.3061 44.7333 74.8528 44.7733 74.3728 44.8C73.9195 44.8267 73.4528 44.84 72.9728 44.84C72.4661 44.84 71.9728 44.8267 71.4928 44.8C71.0395 44.7733 70.5861 44.7333 70.1328 44.68H69.0928C68.8528 44.6533 68.6261 44.6133 68.4128 44.56C68.1995 44.5333 67.9861 44.5067 67.7728 44.48H68.5328C67.7328 44.32 66.9728 44.12 66.2528 43.88H67.2528C66.7728 43.72 66.2928 43.52 65.8128 43.28H66.8928C66.8128 43.2267 66.7328 43.1867 66.6528 43.16C66.5995 43.1333 66.5461 43.1067 66.4928 43.08H67.2928C67.1061 42.9733 66.9328 42.88 66.7728 42.8C66.6128 42.6933 66.4528 42.5867 66.2928 42.48H66.5728L65.7728 41.88H66.9728L66.7328 41.68H67.1728L66.5728 41.08H65.2128C65.1061 40.9733 65.0128 40.88 64.9328 40.8C64.8528 40.6933 64.7728 40.5867 64.6928 40.48H65.3328C65.3061 40.4267 65.2661 40.36 65.2128 40.28C65.1595 40.2 65.1061 40.1333 65.0528 40.08H62.4528L62.3328 39.88H64.6128L64.3728 39.48H64.0928L63.8528 39.08H62.2528L61.8928 38.28H62.4928C62.4661 38.2267 62.4395 38.16 62.4128 38.08C62.3861 38 62.3595 37.9333 62.3328 37.88H61.8128C61.7595 37.7467 61.7061 37.6133 61.6528 37.48C61.6261 37.3467 61.5861 37.2133 61.5328 37.08H61.0928C61.0661 36.9733 61.0395 36.88 61.0128 36.8C60.9861 36.6933 60.9595 36.5867 60.9328 36.48H60.6128C60.5861 36.3733 60.5595 36.28 60.5328 36.2C60.5061 36.0933 60.4795 35.9867 60.4528 35.88H58.2128C58.1861 35.8267 58.1728 35.76 58.1728 35.68C58.1728 35.6 58.1595 35.5333 58.1328 35.48H61.8128C61.8128 35.4267 61.8128 35.36 61.8128 35.28C61.8128 35.2 61.7995 35.1333 61.7728 35.08H61.3328C61.3061 34.9733 61.2795 34.88 61.2528 34.8C61.2528 34.6933 61.2528 34.5867 61.2528 34.48H62.8528C62.8528 34.3733 62.8528 34.28 62.8528 34.2C62.8528 34.0933 62.8395 33.9867 62.8128 33.88H64.3328V33.28H59.8128V32.48H63.1728C63.1461 32.3467 63.1328 32.2133 63.1328 32.08C63.1328 31.9467 63.1328 31.8133 63.1328 31.68H63.6528V31.28H60.3328V30.88H60.6928V30.28H61.7728V29.88H61.2128V29.68H61.0128V28.88H61.0528V28.08H61.1728V27.88H61.2928V27.68H60.5328V27.48H61.3728V27.28H61.1728C61.1995 27.1733 61.2128 27.08 61.2128 27C61.2128 26.8933 61.2128 26.7867 61.2128 26.68H61.5328V26.48H60.8928C60.8928 26.3467 60.8928 26.2133 60.8928 26.08C60.9195 25.9467 60.9328 25.8133 60.9328 25.68H61.2128C61.2395 25.6267 61.2528 25.56 61.2528 25.48C61.2528 25.4 61.2661 25.3333 61.2928 25.28H61.4928L61.6128 24.68H60.2528L60.3728 24.08H61.5728C61.6261 23.9467 61.6661 23.8133 61.6928 23.68C61.7195 23.52 61.7595 23.3867 61.8128 23.28H62.2928L62.3728 23.08H62.0928C62.1195 22.9733 62.1461 22.88 62.1728 22.8C62.2261 22.6933 62.2661 22.5867 62.2928 22.48H62.2528C62.3061 22.3733 62.3461 22.28 62.3728 22.2C62.4261 22.0933 62.4795 21.9867 62.5328 21.88H62.4128L62.7728 21.28H63.0928L63.2128 21.08H62.8528L63.2928 20.48H65.6928C65.7728 20.4 65.8261 20.3333 65.8528 20.28H63.6128L63.9728 19.88H63.7728L64.3728 19.28C64.5328 19.1467 64.6928 19.0133 64.8528 18.88C65.0128 18.72 65.1861 18.5867 65.3728 18.48H65.4128C65.6261 18.3467 65.8395 18.2133 66.0528 18.08C66.2661 17.92 66.4928 17.7867 66.7328 17.68C66.8661 17.6 66.9995 17.5333 67.1328 17.48C67.2928 17.4 67.4395 17.3333 67.5728 17.28H67.6528C68.2128 17.04 68.8128 16.84 69.4528 16.68H69.4128C70.2128 16.4667 71.0528 16.3067 71.9328 16.2C72.8395 16.0933 73.7728 16.04 74.7328 16.04C75.7461 16.04 76.6928 16.0933 77.5728 16.2C78.4795 16.3067 79.3461 16.4667 80.1728 16.68C80.8395 16.84 81.4661 17.04 82.0528 17.28H81.9728C82.1328 17.3333 82.2928 17.4 82.4528 17.48C82.6128 17.5333 82.7728 17.6 82.9328 17.68C83.1995 17.7867 83.4528 17.92 83.6928 18.08C83.9328 18.2133 84.1728 18.3467 84.4128 18.48H84.3728C84.5862 18.5867 84.7728 18.72 84.9328 18.88C85.1195 19.0133 85.3061 19.1467 85.4928 19.28H85.4528C85.5861 19.3867 85.7061 19.4933 85.8128 19.6C85.9195 19.68 86.0261 19.7733 86.1328 19.88H86.3328L86.6928 20.28H88.9328L89.1328 20.48H86.6928C86.7995 20.5867 86.8795 20.6933 86.9328 20.8C87.0128 20.88 87.0928 20.9733 87.1728 21.08H87.5328L87.6528 21.28H87.3328C87.3861 21.3867 87.4395 21.4933 87.4928 21.6C87.5728 21.68 87.6262 21.7733 87.6528 21.88H87.7728C87.8261 21.9867 87.8795 22.0933 87.9328 22.2C87.9861 22.28 88.0261 22.3733 88.0528 22.48H88.1328C88.1861 22.5867 88.2261 22.6933 88.2528 22.8C88.2795 22.88 88.3062 22.9733 88.3328 23.08H88.6528C88.6528 23.1067 88.6528 23.1333 88.6528 23.16C88.6795 23.1867 88.6928 23.2267 88.6928 23.28H88.2128C88.2661 23.4133 88.2928 23.5467 88.2928 23.68C88.3195 23.8133 88.3461 23.9467 88.3728 24.08H88.4528C88.4528 24.1867 88.4528 24.2933 88.4528 24.4C88.4795 24.48 88.4928 24.5733 88.4928 24.68H89.1328C89.1595 24.7333 89.1728 24.8267 89.1728 24.96C89.1728 25.0667 89.1461 25.1733 89.0928 25.28H88.4128C88.3595 25.4667 88.2528 25.6 88.0928 25.68H88.3728C88.2395 25.7867 88.0661 25.84 87.8528 25.84H79.0128C78.6661 25.84 78.3995 25.7867 78.2128 25.68H77.9328C77.7728 25.5733 77.6661 25.48 77.6128 25.4L77.4928 25.28H78.2128C78.1595 25.2 78.0928 25.1067 78.0128 25C77.9328 24.8933 77.8261 24.7867 77.6928 24.68H77.0528C76.7861 24.4133 76.4795 24.2133 76.1328 24.08H76.0528C75.7061 23.92 75.2528 23.84 74.6928 23.84C74.1328 23.84 73.6528 23.92 73.2528 24.08H72.0528C71.7061 24.1867 71.4128 24.3867 71.1728 24.68H72.5328C72.3995 24.8133 72.2661 25.0133 72.1328 25.28H71.8928C71.8661 25.3333 71.8395 25.4 71.8128 25.48C71.7861 25.5333 71.7595 25.6 71.7328 25.68H71.4528C71.4261 25.7867 71.3995 25.92 71.3728 26.08C71.3461 26.2133 71.3195 26.3467 71.2928 26.48H71.9728C71.9461 26.5333 71.9328 26.6 71.9328 26.68H71.6128V27.28H71.7728V27.48H70.9328V27.68H71.6928V27.88H71.5728V28.08H71.4528V28.88H71.4128V29.68H71.6128V29.88H72.1728V30.28H71.0928V30.88H70.7328V31.28H74.0528V31.68H73.5328C73.5328 31.8133 73.5328 31.9467 73.5328 32.08C73.5595 32.2133 73.5728 32.3467 73.5728 32.48H70.2128V33.28H74.7328V33.88H73.2528C73.2528 33.9867 73.2528 34.0933 73.2528 34.2C73.2795 34.28 73.2928 34.3733 73.2928 34.48H71.6928C71.7195 34.5867 71.7461 34.6933 71.7728 34.8C71.7995 34.88 71.8261 34.9733 71.8528 35.08H72.2928C72.3195 35.16 72.3461 35.24 72.3728 35.32C72.3995 35.3733 72.4261 35.4267 72.4528 35.48H68.7728C68.7995 35.6133 68.8795 35.7467 69.0128 35.88H71.2528C71.4128 36.12 71.6128 36.32 71.8528 36.48H72.2128C72.6928 36.8533 73.3728 37.04 74.2528 37.04C74.7061 37.04 75.1328 37 75.5328 36.92C75.9328 36.8133 76.2661 36.6667 76.5328 36.48H73.6928C73.9061 36.3467 74.1195 36.1467 74.3328 35.88H74.2928C74.3995 35.72 74.4661 35.5867 74.4928 35.48H78.2128L78.3328 35.08H78.6928C78.7195 34.9733 78.7328 34.88 78.7328 34.8C78.7595 34.6933 78.7728 34.5867 78.7728 34.48H78.6528L78.6928 34.2V34.16H76.8128C76.5461 34.16 76.2928 34.0667 76.0528 33.88C75.8661 33.6933 75.7595 33.4933 75.7328 33.28H78.0128C77.9861 33.2267 77.9728 33.16 77.9728 33.08V32.48H79.5328V31.68H74.2928V31.28H76.4128V30.88H74.9328V30.28H75.3328V29.88H75.6128V29.68H75.2928V28.88H75.4128V28.64C75.4128 28.4 75.4661 28.2133 75.5728 28.08H75.4128C75.4395 28.0267 75.4928 27.96 75.5728 27.88H75.8128C75.9195 27.7733 75.9995 27.7067 76.0528 27.68H75.3328C75.4661 27.6 75.6261 27.56 75.8128 27.56H86.8128C87.0261 27.56 87.1862 27.6 87.2928 27.68H88.0528C88.1328 27.7067 88.2262 27.7733 88.3328 27.88H88.0928C88.1728 27.96 88.2261 28.0267 88.2528 28.08H88.4128C88.5195 28.2133 88.5728 28.4 88.5728 28.64V28.88H88.4528V29.68H88.7728V29.88H88.4928V30.28H88.0928V30.88H89.5728V31.28H87.4528V31.68Z" fill="#55C1FF"/>
<path d="M109.277 18.28L109.197 18.48H110.597L110.517 18.68H108.997L108.837 19.08H109.237L109.077 19.48H108.757L108.517 20.08H108.357L108.117 20.68H107.597L107.277 21.48H108.757L108.597 21.88H107.677L107.437 22.48H107.157L106.797 23.28H107.037L106.757 23.88H107.077L106.997 24.08H106.317L106.237 24.28H107.717L107.557 24.68H106.597L106.277 25.48H106.637L106.317 26.28H106.517L106.277 26.88H104.917L104.717 27.28H105.437L105.197 27.88H103.757L103.437 28.68H105.397L105.157 29.28H104.597L104.237 30.08H104.357L104.117 30.68H104.077L103.877 31.08H103.917L103.677 31.68L103.557 31.88H103.717L103.557 32.28H104.277L103.957 33.08H102.597L102.277 33.88H102.557L102.197 34.68H104.797L104.597 35.08H104.997L104.677 35.88H102.197L102.037 36.28H101.157L100.997 36.68H101.477L101.157 37.48H101.357L101.197 37.88H101.077L100.837 38.48H100.997L100.637 39.28H100.717L100.637 39.48H99.4372L99.2772 39.88H99.2372L98.9172 40.68H100.557L100.277 41.28H99.9172L99.8372 41.48H99.5972L99.2772 42.28H99.2372L99.0772 42.68H99.1572L98.7972 43.48H99.2372L99.1572 43.68H99.1172L98.8772 44.28H98.3972L98.3172 44.48H97.4772L97.3172 44.88H97.0372L96.8772 45.28H97.3172L97.1972 45.48H98.6372L98.4772 45.88H97.5572L97.3172 46.48H97.5172L97.4772 46.6L97.2372 47.08H97.1972C97.0905 47.24 96.9572 47.3733 96.7972 47.48H98.2772C98.1172 47.5867 97.9839 47.6533 97.8772 47.68H96.6772C96.4905 47.76 96.2505 47.8 95.9572 47.8H90.7172C90.5572 47.8 90.4105 47.76 90.2772 47.68H91.4772C91.4239 47.6533 91.3439 47.5867 91.2372 47.48H89.7572C89.6505 47.32 89.5972 47.1867 89.5972 47.08V46.92C89.5972 46.8133 89.6239 46.6933 89.6772 46.56L89.7172 46.48H89.4772L89.7172 45.88H90.6372L90.8372 45.48H89.3972L89.4772 45.28H89.0772L89.2372 44.88H89.4772L89.6372 44.48H90.5172L90.5972 44.28H91.0372L91.2772 43.68H91.3172L91.3972 43.48H90.9972L91.3172 42.68H91.2372L91.3972 42.28H91.4372L91.7572 41.48H91.9972L92.0772 41.28H92.4772L92.7172 40.68H91.0772L91.3972 39.88H91.4372L91.5972 39.48H92.7972L92.8772 39.28H92.7972L93.1572 38.48H92.9972L93.2372 37.88H93.3572L93.5172 37.48H93.2772L93.6372 36.68H93.1572L93.3172 36.28H94.1972L94.3572 35.88H96.7972L97.1172 35.08H96.7572L96.9172 34.68H94.3572L94.6772 33.88H94.3972L94.7572 33.08H96.0772L96.3972 32.28H95.6772L95.8372 31.88H95.7172L96.1972 30.68H96.2372L96.4772 30.08H96.3572L96.7172 29.28H97.2772L97.5172 28.68H95.5572L95.8772 27.88H97.2772L97.5572 27.28H96.8372L96.9972 26.88H98.3972L98.6372 26.28H98.3972L98.7572 25.48H98.3572L98.7172 24.68H99.6772L99.8372 24.28H98.3572L98.4372 24.08H99.0772L99.1572 23.88H98.8772L99.1172 23.28H98.9172L99.2372 22.48H99.5172L99.7572 21.88H100.677L100.877 21.48H99.3572L99.6772 20.68H100.197L100.437 20.08H100.597L100.837 19.48H101.157L101.317 19.08H100.917L101.077 18.68H102.597L102.677 18.48H101.277L101.357 18.28H99.6772L99.8372 17.88H100.957L101.317 17.08H102.397L102.477 16.88H101.517L101.837 16.08H100.877L100.957 15.88H102.237L102.397 15.48H101.797L101.957 15.08H101.277L101.517 14.48H102.517L102.637 14.2C102.691 14.12 102.731 14.04 102.757 13.96C102.811 13.8533 102.877 13.76 102.957 13.68H102.357C102.491 13.4933 102.677 13.3333 102.917 13.2C103.157 13.0667 103.451 13 103.797 13H109.157C109.611 13 109.904 13.2267 110.037 13.68H110.597C110.624 13.7333 110.637 13.8 110.637 13.88C110.637 13.9867 110.611 14.1067 110.557 14.24L110.437 14.48H109.477L109.197 15.08H109.917L109.717 15.48H110.317L110.157 15.88H108.877L108.797 16.08H109.757L109.437 16.88H110.397L110.317 17.08H109.237L108.877 17.88H107.757L107.597 18.28H109.277Z" fill="#55C1FF"/>
<path d="M132.441 32.28H132.561C132.561 32.52 132.521 32.72 132.441 32.88H132.361C132.361 32.9067 132.335 32.9733 132.281 33.08H132.241C132.161 33.1867 132.068 33.2933 131.961 33.4C131.881 33.48 131.775 33.5733 131.641 33.68H131.601C131.575 33.7067 131.535 33.7333 131.481 33.76C131.428 33.7867 131.375 33.8267 131.321 33.88H131.921C131.895 33.88 131.881 33.8933 131.881 33.92C131.881 33.92 131.868 33.92 131.841 33.92L131.321 34.28H131.721L131.441 34.48H130.961L130.041 35.08H129.561L128.961 35.48H129.241L127.481 36.68H126.681L125.801 37.28H126.281L126.001 37.48L123.681 39.08H123.561L122.961 39.48H123.001L121.801 40.28L121.521 40.48H121.241L120.921 40.68H121.681L121.081 41.08H121.881L120.721 41.88H120.601L119.401 42.68H120.961L119.761 43.48H117.481L116.321 44.28H117.841L117.241 44.68H116.241C116.161 44.6267 116.095 44.56 116.041 44.48C116.015 44.4267 115.975 44.36 115.921 44.28H114.441C114.388 44.1733 114.361 44.08 114.361 44V43.48H116.641V42.68H115.121V41.88H115.201V41.08H114.401V40.68H113.681V40.48H113.961V39.48H113.921V39.08H114.041V38.28H114.001V37.28H113.521C113.548 37.0667 113.615 36.8667 113.721 36.68H114.521C114.681 36.44 114.881 36.24 115.121 36.08C115.201 36.0267 115.281 35.9733 115.361 35.92C115.441 35.8667 115.508 35.8267 115.561 35.8L116.081 35.48H115.801L116.401 35.08H116.921L117.881 34.48H118.361L118.681 34.28H118.281L118.921 33.88H118.321L119.601 33.08H119.641L119.961 32.88H120.041L121.001 32.28H120.881L122.161 31.48H122.121L122.281 31.4L122.081 31.28H122.041L121.401 30.88H121.321L121.001 30.68H121.161L119.881 29.88H119.281L117.961 29.08H118.441L117.481 28.48H117.601L116.961 28.08H116.561L116.241 27.88H116.481L115.841 27.48L115.121 27.04C114.935 26.9333 114.748 26.8133 114.561 26.68H114.081C113.975 26.5733 113.855 26.4667 113.721 26.36C113.615 26.2267 113.521 26.0667 113.441 25.88H114.761L114.641 25.48H112.121C112.095 25.4267 112.081 25.36 112.081 25.28V25.08H115.521V24.68H115.761V23.88H114.281V23.28H112.561V22.68H111.201V21.88H115.161V21.68H112.601V20.88H112.001V20.28H115.241V19.68H114.641V19.08H114.601V18.68H114.081C114.135 18.2 114.415 17.96 114.921 17.96C114.975 17.96 115.028 17.9733 115.081 18C115.161 18 115.255 18.0267 115.361 18.08L116.241 18.68H116.761L117.361 19.08H117.401L118.321 19.68H118.921L119.801 20.28H116.561L117.441 20.88H118.041L119.201 21.68H121.801L122.081 21.88H118.081L119.281 22.68H120.641L121.521 23.28H123.281L124.161 23.88H125.641L126.841 24.68H126.561L127.161 25.08H123.761L124.321 25.48H126.881L127.481 25.88H126.201L127.361 26.68H127.881L129.041 27.48H129.081L129.681 27.88H129.401L129.721 28.08H130.081L130.681 28.48H130.601L131.201 28.88C131.255 28.9067 131.308 28.9333 131.361 28.96C131.415 28.9867 131.455 29.0267 131.481 29.08H131.001C131.161 29.1867 131.308 29.3067 131.441 29.44C131.575 29.5733 131.668 29.72 131.721 29.88H132.361C132.441 30.0667 132.481 30.2933 132.481 30.56V30.68H132.321V30.88H132.401V31.28H132.441V32.28ZM115.281 44.84C115.068 44.84 114.895 44.7867 114.761 44.68H115.801L115.721 44.72C115.615 44.7733 115.521 44.8 115.441 44.8C115.388 44.8267 115.335 44.84 115.281 44.84Z" fill="#55C1FF"/>
</svg>
