<svg width="40" height="40" viewBox="0 0 40 40" fill="none" xmlns="http://www.w3.org/2000/svg">
<path d="M32.5 10L30.0555 11.8333C29.4785 12.2661 28.7767 12.5 28.0555 12.5H22.4583C21.4624 12.5 20.552 13.0627 20.1066 13.9534V13.9534C19.557 15.0527 19.8421 16.386 20.7933 17.1643L24.1266 19.8915C26.7498 22.0378 28.1074 25.3667 27.7331 28.7354L27.6998 29.0344C27.5672 30.2282 27.2738 31.3986 26.8277 32.5139L25.8333 35" stroke="white" stroke-width="1.66667"/>
<path d="M4.16663 17.5L9.56345 16.6005C11.8195 16.2245 13.7754 18.1804 13.3994 20.4365L13.1752 21.7816C12.7739 24.1899 13.9901 26.5784 16.1739 27.6703V27.6703C17.9225 28.5446 18.8293 30.5161 18.3551 32.4127L17.5 35.8333" stroke="white" stroke-width="1.66667"/>
<circle cx="20" cy="20" r="15.8333" stroke="white" stroke-width="1.66667"/>
</svg>
