<svg width="81" height="80" viewBox="0 0 81 80" fill="none" xmlns="http://www.w3.org/2000/svg">
<path d="M60.5941 17.7778L57.0239 57.7732L40.9757 62.2223L24.9717 57.7795L21.4053 17.7778H60.5941Z" fill="#264DE4"/>
<path d="M53.9677 55.2264L57.0187 21.0486H41V58.8216L53.9677 55.2264Z" fill="#2965F1"/>
<path d="M29.5811 35.8846L30.0208 40.7906H40.9995V35.8846H29.5811Z" fill="#EBEBEB"/>
<path d="M41.0003 25.9546H40.9833H28.6982L29.1442 30.8607H41.0003V25.9546Z" fill="#EBEBEB"/>
<path d="M40.9998 53.7303V48.626L40.9783 48.6317L35.5144 47.1563L35.1651 43.2435H32.5101H30.2402L30.9276 50.9467L40.9772 53.7366L40.9998 53.7303Z" fill="#EBEBEB"/>
<path d="M47.0237 40.7905L46.4542 47.1533L40.9824 48.6301V53.7343L51.0401 50.9468L51.1138 50.1179L52.2667 37.2019L52.3864 35.8845L53.2721 25.9546H40.9824V30.8607H47.8955L47.4491 35.8845H40.9824V40.7905H47.0237Z" fill="white"/>
</svg>
