<svg width="81" height="80" viewBox="0 0 81 80" fill="none" xmlns="http://www.w3.org/2000/svg">
<path d="M33.592 62.2223C37.6809 62.2223 40.9994 58.9037 40.9994 54.8149V47.4075H33.592C29.5031 47.4075 26.1846 50.726 26.1846 54.8149C26.1846 58.9037 29.5031 62.2223 33.592 62.2223Z" fill="#0ACF83"/>
<path d="M26.1846 40C26.1846 35.9112 29.5031 32.5927 33.592 32.5927H40.9994V47.4074H33.592C29.5031 47.4074 26.1846 44.0889 26.1846 40Z" fill="#A259FF"/>
<path d="M26.1846 25.1852C26.1846 21.0963 29.5031 17.7778 33.592 17.7778H40.9994V32.5926H33.592C29.5031 32.5926 26.1846 29.2741 26.1846 25.1852Z" fill="#F24E1E"/>
<path d="M41 17.7778H48.4074C52.4963 17.7778 55.8148 21.0963 55.8148 25.1852C55.8148 29.2741 52.4963 32.5926 48.4074 32.5926H41V17.7778Z" fill="#FF7262"/>
<path d="M55.8148 40C55.8148 44.0889 52.4963 47.4074 48.4074 47.4074C44.3185 47.4074 41 44.0889 41 40C41 35.9112 44.3185 32.5927 48.4074 32.5927C52.4963 32.5927 55.8148 35.9112 55.8148 40Z" fill="#1ABCFE"/>
</svg>
