<svg width="81" height="81" viewBox="0 0 81 81" fill="none" xmlns="http://www.w3.org/2000/svg">
<path d="M45.5249 34.3309L41.0801 38.4694L36.9542 30.1438L39.0856 25.3567C39.6243 24.4018 40.5054 24.3891 41.0441 25.3567L45.5249 34.3309Z" fill="#FFA000"/>
<path d="M41.082 38.4677L24.4558 53.9317L36.9561 30.1438L41.082 38.4677Z" fill="#F57F17"/>
<path d="M50.3986 28.0016C51.1949 27.2431 52.0147 27.4989 52.2219 28.5764L56.5442 53.7228L42.208 62.3295C41.7053 62.6106 40.3721 62.7205 40.3721 62.7205C40.3721 62.7205 39.1595 62.5727 38.6947 62.3169L24.4558 53.9318L50.3986 28.0016Z" fill="#FFCA28"/>
<path d="M36.956 30.1438L24.4558 53.9317L30.0267 19.1624C30.2357 18.085 30.8465 17.9751 31.3978 18.93L36.956 30.1438Z" fill="#FFA000"/>
</svg>
