<svg width="41" height="40" viewBox="0 0 41 40" fill="none" xmlns="http://www.w3.org/2000/svg">
<path fill-rule="evenodd" clip-rule="evenodd" d="M20.1667 3.74448C10.9583 3.74448 3.5 11.2028 3.5 20.4111C3.5 27.7861 8.27083 34.0153 14.8958 36.2236C15.7292 36.3695 16.0417 35.8695 16.0417 35.432C16.0417 35.0361 16.0208 33.7236 16.0208 32.3278C11.8333 33.0986 10.75 31.307 10.4167 30.3695C10.2292 29.8903 9.41667 28.4111 8.70833 28.0153C8.125 27.7028 7.29167 26.932 8.6875 26.9111C10 26.8903 10.9375 28.1195 11.25 28.6195C12.75 31.1403 15.1458 30.432 16.1042 29.9945C16.25 28.9111 16.6875 28.182 17.1667 27.7653C13.4583 27.3486 9.58333 25.9111 9.58333 19.5361C9.58333 17.7236 10.2292 16.2236 11.2917 15.057C11.125 14.6403 10.5417 12.932 11.4583 10.6403C11.4583 10.6403 12.8542 10.2028 16.0417 12.3486C17.375 11.9736 18.7917 11.7861 20.2083 11.7861C21.625 11.7861 23.0417 11.9736 24.375 12.3486C27.5625 10.182 28.9583 10.6403 28.9583 10.6403C29.875 12.932 29.2917 14.6403 29.125 15.057C30.1875 16.2236 30.8333 17.7028 30.8333 19.5361C30.8333 25.932 26.9375 27.3486 23.2292 27.7653C23.8333 28.2861 24.3542 29.2861 24.3542 30.8486C24.3542 33.0778 24.3333 34.8695 24.3333 35.432C24.3333 35.8695 24.6458 36.3903 25.4792 36.2236C28.7878 35.1067 31.6629 32.9803 33.6997 30.1437C35.7365 27.3071 36.8324 23.9032 36.8333 20.4111C36.8333 11.2028 29.375 3.74448 20.1667 3.74448Z" fill="white"/>
</svg>
