<svg width="41" height="40" viewBox="0 0 41 40" fill="none" xmlns="http://www.w3.org/2000/svg">
<path fill-rule="evenodd" clip-rule="evenodd" d="M20.167 5C16.093 5 15.583 5.017 13.983 5.09C12.386 5.163 11.295 5.417 10.341 5.788C9.34099 6.164 8.43399 6.754 7.68399 7.518C6.92121 8.26713 6.33085 9.17349 5.95399 10.174C5.58499 11.128 5.32999 12.22 5.25699 13.817C5.18499 15.416 5.16699 15.925 5.16699 20C5.16699 24.075 5.18399 24.584 5.25699 26.184C5.32999 27.781 5.58399 28.872 5.95499 29.826C6.33099 30.826 6.92099 31.733 7.68499 32.483C8.43415 33.2458 9.3405 33.8361 10.341 34.213C11.295 34.583 12.386 34.837 13.983 34.91C15.583 34.983 16.093 35 20.167 35C24.241 35 24.751 34.983 26.351 34.91C27.948 34.837 29.039 34.583 29.993 34.212C30.993 33.836 31.9 33.246 32.65 32.482C33.4128 31.7329 34.0031 30.8265 34.38 29.826C34.75 28.872 35.004 27.781 35.077 26.184C35.15 24.584 35.167 24.074 35.167 20C35.167 15.926 35.15 15.416 35.077 13.816C35.004 12.219 34.75 11.128 34.379 10.174C34.0024 9.17306 33.412 8.26632 32.649 7.517C31.8999 6.75422 30.9935 6.16386 29.993 5.787C29.039 5.418 27.947 5.163 26.35 5.09C24.751 5.018 24.242 5 20.167 5ZM20.167 7.703C24.172 7.703 24.647 7.718 26.229 7.79C27.691 7.857 28.485 8.1 29.014 8.307C29.714 8.578 30.214 8.904 30.739 9.428C31.264 9.953 31.589 10.453 31.86 11.153C32.066 11.682 32.31 12.476 32.377 13.938C32.449 15.52 32.464 15.995 32.464 20C32.464 24.005 32.449 24.48 32.377 26.062C32.31 27.524 32.067 28.318 31.86 28.847C31.6199 29.4985 31.2369 30.088 30.739 30.572C30.2551 31.07 29.6656 31.4531 29.014 31.693C28.485 31.899 27.691 32.143 26.229 32.21C24.647 32.282 24.173 32.297 20.167 32.297C16.161 32.297 15.687 32.282 14.105 32.21C12.643 32.143 11.849 31.9 11.32 31.693C10.6684 31.4529 10.079 31.0699 9.59499 30.572C9.09717 30.088 8.71412 29.4985 8.47399 28.847C8.26799 28.318 8.02399 27.524 7.95699 26.062C7.88499 24.48 7.86999 24.005 7.86999 20C7.86999 15.995 7.88499 15.52 7.95699 13.938C8.02399 12.476 8.26699 11.682 8.47399 11.153C8.74499 10.453 9.07099 9.953 9.59499 9.428C10.0789 8.93004 10.6684 8.54698 11.32 8.307C11.849 8.101 12.643 7.857 14.105 7.79C15.687 7.718 16.162 7.703 20.167 7.703V7.703Z" fill="white"/>
<path fill-rule="evenodd" clip-rule="evenodd" d="M20.167 25.005C19.5098 25.005 18.8589 24.8755 18.2517 24.624C17.6445 24.3725 17.0927 24.0038 16.628 23.5391C16.1632 23.0743 15.7945 22.5226 15.543 21.9153C15.2915 21.3081 15.162 20.6573 15.162 20C15.162 19.3427 15.2915 18.6919 15.543 18.0847C15.7945 17.4774 16.1632 16.9257 16.628 16.4609C17.0927 15.9962 17.6445 15.6275 18.2517 15.376C18.8589 15.1245 19.5098 14.995 20.167 14.995C21.4944 14.995 22.7675 15.5223 23.7061 16.4609C24.6447 17.3995 25.172 18.6726 25.172 20C25.172 21.3274 24.6447 22.6005 23.7061 23.5391C22.7675 24.4777 21.4944 25.005 20.167 25.005ZM20.167 12.29C18.1222 12.29 16.1611 13.1023 14.7152 14.5482C13.2693 15.9941 12.457 17.9552 12.457 20C12.457 22.0448 13.2693 24.0059 14.7152 25.4518C16.1611 26.8977 18.1222 27.71 20.167 27.71C22.2118 27.71 24.1729 26.8977 25.6188 25.4518C27.0647 24.0059 27.877 22.0448 27.877 20C27.877 17.9552 27.0647 15.9941 25.6188 14.5482C24.1729 13.1023 22.2118 12.29 20.167 12.29ZM30.12 12.15C30.12 12.6334 29.928 13.0969 29.5862 13.4387C29.2444 13.7805 28.7809 13.9725 28.2975 13.9725C27.8142 13.9725 27.3506 13.7805 27.0088 13.4387C26.667 13.0969 26.475 12.6334 26.475 12.15C26.475 11.6666 26.667 11.2031 27.0088 10.8613C27.3506 10.5195 27.8142 10.3275 28.2975 10.3275C28.7809 10.3275 29.2444 10.5195 29.5862 10.8613C29.928 11.2031 30.12 11.6666 30.12 12.15Z" fill="white"/>
</svg>
