<svg width="81" height="81" viewBox="0 0 81 81" fill="none" xmlns="http://www.w3.org/2000/svg">
<path d="M62.2218 17.7778H17.7773V62.2223H62.2218V17.7778Z" fill="#F7DF1E"/>
<path d="M47.6326 52.5002C48.5278 53.9619 49.6925 55.0364 51.7525 55.0364C53.483 55.0364 54.5885 54.1715 54.5885 52.9764C54.5885 51.5443 53.4527 51.0371 51.5479 50.2039L50.5038 49.7559C47.4901 48.472 45.488 46.8635 45.488 43.4632C45.488 40.3309 47.8746 37.9464 51.6044 37.9464C54.2597 37.9464 56.1687 38.8706 57.5444 41.2903L54.2922 43.3785C53.5761 42.0946 52.8037 41.5887 51.6044 41.5887C50.3811 41.5887 49.6058 42.3648 49.6058 43.3785C49.6058 44.6314 50.3818 45.1386 52.1737 45.9147L53.2178 46.3619C56.7663 47.8836 58.7698 49.4349 58.7698 52.9228C58.7698 56.6829 55.816 58.7429 51.8492 58.7429C47.9705 58.7429 45.4647 56.8946 44.2386 54.472L47.6326 52.5002ZM32.8791 52.8621C33.5352 54.0261 34.132 55.0103 35.567 55.0103C36.9391 55.0103 37.8047 54.4734 37.8047 52.3859V38.1849H41.9811V52.4424C41.9811 56.7669 39.4456 58.7351 35.7447 58.7351C32.4008 58.7351 30.4643 57.0046 29.4795 54.9203L32.8791 52.8621Z" fill="black"/>
</svg>
