<svg width="41" height="40" viewBox="0 0 41 40" fill="none" xmlns="http://www.w3.org/2000/svg">
<path d="M35.167 7.20588V32.7941C35.167 33.3792 34.9346 33.9402 34.5209 34.3539C34.1072 34.7676 33.5461 35 32.9611 35H7.37287C6.78784 35 6.22676 34.7676 5.81308 34.3539C5.3994 33.9402 5.16699 33.3792 5.16699 32.7941V7.20588C5.16699 6.62085 5.3994 6.05977 5.81308 5.64609C6.22676 5.2324 6.78784 5 7.37287 5H32.9611C33.5461 5 34.1072 5.2324 34.5209 5.64609C34.9346 6.05977 35.167 6.62085 35.167 7.20588V7.20588ZM13.9905 16.4706H9.57876V30.5882H13.9905V16.4706ZM14.3876 11.6176C14.3899 11.2839 14.3265 10.953 14.2009 10.6438C14.0754 10.3346 13.8901 10.0532 13.6558 9.81558C13.4215 9.57797 13.1426 9.38884 12.8352 9.259C12.5278 9.12915 12.1978 9.06113 11.8641 9.05882H11.7846C11.106 9.05882 10.4552 9.32841 9.97528 9.80829C9.49541 10.2882 9.22582 10.939 9.22582 11.6176C9.22582 12.2963 9.49541 12.9471 9.97528 13.427C10.4552 13.9069 11.106 14.1765 11.7846 14.1765V14.1765C12.1184 14.1847 12.4505 14.1271 12.7619 14.0069C13.0734 13.8867 13.3581 13.7063 13.5998 13.4761C13.8416 13.2458 14.0355 12.9702 14.1707 12.6649C14.3059 12.3597 14.3796 12.0308 14.3876 11.6971V11.6176ZM30.7552 22.0118C30.7552 17.7676 28.0552 16.1176 25.3729 16.1176C24.4946 16.0737 23.6202 16.2607 22.8368 16.6602C22.0534 17.0596 21.3884 17.6575 20.9082 18.3941H20.7846V16.4706H16.6376V30.5882H21.0493V23.0794C20.9856 22.3104 21.2278 21.5472 21.7234 20.9558C22.2191 20.3643 22.9281 19.9923 23.6964 19.9206H23.8641C25.267 19.9206 26.3082 20.8029 26.3082 23.0265V30.5882H30.7199L30.7552 22.0118Z" fill="white"/>
</svg>
