<svg width="60" height="120" viewBox="0 0 60 120" fill="none" xmlns="http://www.w3.org/2000/svg" class="logo">
<path d="M0 20C0 8.95431 8.95431 0 20 0H40C51.0457 0 60 8.95431 60 20V100C60 111.046 51.0457 120 40 120H20C8.9543 120 0 111.046 0 100V20Z" fill="black"/>
<path d="M34.784 47.496C33.728 48.232 32.448 48.6 30.944 48.6H28.976C26.16 48.6 24.096 48.008 22.784 46.824C21.472 45.608 20.816 43.64 20.816 40.92V32.28C20.816 29.592 21.472 27.64 22.784 26.424C24.128 25.208 26.192 24.6 28.976 24.6H34.544V15H38.624V48.6H34.784V47.496ZM31.424 45C32.48 45 33.264 44.728 33.776 44.184C34.288 43.608 34.544 43 34.544 42.36V28.2H28.496C27.312 28.2 26.416 28.472 25.808 29.016C25.2 29.56 24.896 30.328 24.896 31.32V41.88C24.896 42.872 25.2 43.64 25.808 44.184C26.416 44.728 27.312 45 28.496 45H31.424Z" fill="white" class="key"/>
<path d="M36.8 76.6C36.384 76.6 35.92 76.472 35.408 76.216C34.928 75.96 34.512 75.608 34.16 75.16C33.424 76.12 32.448 76.6 31.232 76.6H26.96C24.528 76.6 22.752 76.12 21.632 75.16C20.544 74.168 20 72.488 20 70.12V69.16C20 64.2 22.336 61.72 27.008 61.72H32.96V59.32C32.96 58.328 32.656 57.56 32.048 57.016C31.44 56.472 30.544 56.2 29.36 56.2H21.92V52.6H28.88C31.664 52.6 33.712 53.208 35.024 54.424C36.368 55.64 37.04 57.592 37.04 60.28V71.8C37.04 72.28 37.216 72.648 37.568 72.904C37.952 73.128 38.576 73.24 39.44 73.24V76.6H36.8ZM30.752 73C31.712 73 32.32 72.776 32.576 72.328C32.832 71.88 32.96 71.304 32.96 70.6V65.32H26.96C26.128 65.32 25.44 65.592 24.896 66.136C24.352 66.68 24.08 67.368 24.08 68.2V70.6C24.08 71.432 24.272 72.04 24.656 72.424C25.04 72.808 25.648 73 26.48 73H30.752Z" fill="white" class="key"/>
<path d="M24.8 80.6V81.752C25.792 80.984 27.072 80.6 28.64 80.6H30.848C33.44 80.6 35.36 81.208 36.608 82.424C37.888 83.64 38.528 85.592 38.528 88.28V104.6H34.448V87.32C34.448 86.36 34.16 85.608 33.584 85.064C33.04 84.488 32.288 84.2 31.328 84.2H28.16C27.104 84.2 26.32 84.488 25.808 85.064C25.296 85.608 25.04 86.2 25.04 86.84V104.6H20.96V80.6H24.8Z" fill="white" class="key"/>
</svg>
