<svg width="120" height="60" viewBox="0 0 120 60" fill="none" xmlns="http://www.w3.org/2000/svg" class="logo">
<path d="M0 20C0 8.9543 8.95431 0 20 0H100C111.046 0 120 8.95431 120 20V40C120 51.0457 111.046 60 100 60H20C8.95431 60 0 51.0457 0 40V20Z" fill="black"/>
<path d="M38 43.896C36.944 44.632 35.664 45 34.16 45H32.192C29.376 45 27.312 44.408 26 43.224C24.688 42.008 24.032 40.04 24.032 37.32V28.68C24.032 25.992 24.688 24.04 26 22.824C27.344 21.608 29.408 21 32.192 21H37.76V11.4H41.84V45H38V43.896ZM34.64 41.4C35.696 41.4 36.48 41.128 36.992 40.584C37.504 40.008 37.76 39.4 37.76 38.76V24.6H31.712C30.528 24.6 29.632 24.872 29.024 25.416C28.416 25.96 28.112 26.728 28.112 27.72V38.28C28.112 39.272 28.416 40.04 29.024 40.584C29.632 41.128 30.528 41.4 31.712 41.4H34.64Z" fill="white" class="key"/>
<path d="M66.8979 45C66.4819 45 66.0179 44.872 65.5059 44.616C65.0259 44.36 64.6099 44.008 64.2579 43.56C63.5219 44.52 62.5459 45 61.3299 45H57.0579C54.6259 45 52.8499 44.52 51.7299 43.56C50.6419 42.568 50.0979 40.888 50.0979 38.52V37.56C50.0979 32.6 52.4339 30.12 57.1059 30.12H63.0579V27.72C63.0579 26.728 62.7539 25.96 62.1459 25.416C61.5379 24.872 60.6419 24.6 59.4579 24.6H52.0179V21H58.9779C61.7619 21 63.8099 21.608 65.1219 22.824C66.4659 24.04 67.1379 25.992 67.1379 28.68V40.2C67.1379 40.68 67.3139 41.048 67.6659 41.304C68.0499 41.528 68.6739 41.64 69.5379 41.64V45H66.8979ZM60.8499 41.4C61.8099 41.4 62.4179 41.176 62.6739 40.728C62.9299 40.28 63.0579 39.704 63.0579 39V33.72H57.0579C56.2259 33.72 55.5379 33.992 54.9939 34.536C54.4499 35.08 54.1779 35.768 54.1779 36.6V39C54.1779 39.832 54.3699 40.44 54.7539 40.824C55.1379 41.208 55.7459 41.4 56.5779 41.4H60.8499Z" fill="white" class="key"/>
<path d="M81.7797 21V22.152C82.7717 21.384 84.0518 21 85.6198 21H87.8278C90.4198 21 92.3397 21.608 93.5877 22.824C94.8677 24.04 95.5078 25.992 95.5078 28.68V45H91.4277V27.72C91.4277 26.76 91.1398 26.008 90.5638 25.464C90.0198 24.888 89.2677 24.6 88.3077 24.6H85.1397C84.0837 24.6 83.2998 24.888 82.7878 25.464C82.2758 26.008 82.0197 26.6 82.0197 27.24V45H77.9398V21H81.7797Z" fill="white" class="key"/>
</svg>
