<svg width="81" height="81" viewBox="0 0 81 81" fill="none" xmlns="http://www.w3.org/2000/svg">
<path d="M41.0004 43.9183C43.1644 43.9183 44.9187 42.164 44.9187 40C44.9187 37.836 43.1644 36.0817 41.0004 36.0817C38.8363 36.0817 37.082 37.836 37.082 40C37.082 42.164 38.8363 43.9183 41.0004 43.9183Z" fill="#61DAFB"/>
<path d="M41.0007 48.0277C52.6126 48.0277 62.0259 44.4336 62.0259 40C62.0259 35.5663 52.6126 31.9722 41.0007 31.9722C29.3889 31.9722 19.9756 35.5663 19.9756 40C19.9756 44.4336 29.3889 48.0277 41.0007 48.0277Z" stroke="#61DAFB" stroke-width="2.22222"/>
<path d="M34.0485 44.0138C39.8544 54.07 47.6737 60.4251 51.5133 58.2083C55.353 55.9914 53.7589 46.0422 47.953 35.986C42.1471 25.9299 34.3278 19.5748 30.4882 21.7916C26.6485 24.0084 28.2425 33.9576 34.0485 44.0138Z" stroke="#61DAFB" stroke-width="2.22222"/>
<path d="M34.0477 35.9861C28.2418 46.0423 26.6478 55.9915 30.4874 58.2083C34.327 60.4251 42.1463 54.07 47.9523 44.0139C53.7582 33.9577 55.3522 24.0085 51.5126 21.7916C47.6729 19.5748 39.8537 25.9299 34.0477 35.9861Z" stroke="#61DAFB" stroke-width="2.22222"/>
</svg>
