<svg width="81" height="81" viewBox="0 0 81 81" fill="none" xmlns="http://www.w3.org/2000/svg">
<path d="M41.0005 26.6703C35.0744 26.6703 31.3708 29.6325 29.8892 35.5564C32.1117 32.5942 34.7043 31.4838 37.6671 32.224C39.3577 32.6464 40.5659 33.873 41.9037 35.2301C44.0823 37.441 46.6038 39.9997 52.1119 39.9997C58.0375 39.9997 61.7417 37.0375 63.2228 31.1131C61.0008 34.0753 58.4082 35.1862 55.4448 34.446C53.7548 34.0236 52.5465 32.797 51.2088 31.4398C49.0302 29.229 46.5082 26.6703 41.0005 26.6703V26.6703ZM29.8892 39.9997C23.9636 39.9997 20.2594 42.9619 18.7783 48.8864C21.0003 45.9241 23.5929 44.8132 26.5562 45.554C28.2463 45.9769 29.4545 47.203 30.7923 48.5596C32.9709 50.7704 35.4929 53.3297 41.0005 53.3297C46.9267 53.3297 50.6303 50.3675 52.1119 44.443C49.8894 47.4053 47.2968 48.5162 44.334 47.7754C42.6434 47.3536 41.4352 46.1264 40.0974 44.7698C37.9188 42.559 35.3973 39.9997 29.8892 39.9997V39.9997Z" fill="#06B6D4"/>
</svg>
